<svg width="640" height="512" xmlns="http://www.w3.org/2000/svg">

 <g>
  <title>background</title>
  <rect fill="#000000" id="canvas_background" height="514" width="642" y="-1" x="-1"/>
 </g>
 <g>
  <title>Layer 1</title>
  <path fill="#ffffff" canvas="#e5e5e5" canvas-opacity="1" id="svg_1" d="m593.8,59.1l-547.6,0c-25.5,0 -46.2,20.7 -46.2,46.1l0,301.5c0,25.5 20.7,46.2 46.2,46.2l547.7,0c25.5,0 46.2,-20.7 46.1,-46.1l0,-301.6c0,-25.4 -20.7,-46.1 -46.2,-46.1zm-255.3,301.5l-61.5,0l0,-120l-61.5,76.9l-61.5,-76.9l0,120l-61.7,0l0,-209.2l61.5,0l61.5,76.9l61.5,-76.9l61.5,0l0,209.2l0.2,0zm135.1,3.1l-92.1,-107.7l61.5,0l0,-104.6l61.5,0l0,104.6l61.5,0l-92.4,107.7z"/>
 </g>
</svg>